Coordinates
version=1
nRows=20
nColumns=34
inDegrees=yes

Units are S.I. units (second, meters, Newtons, ...)
If the header above contains a line with 'inDegrees', this indicates whether rotational values are in degrees (yes) or radians (no).

endheader
time	pelvis_tilt	pelvis_list	pelvis_rotation	pelvis_tx	pelvis_ty	pelvis_tz	hip_flexion_r	hip_adduction_r	hip_rotation_r	knee_angle_r	ankle_angle_r	subtalar_angle_r	mtp_angle_r	hip_flexion_l	hip_adduction_l	hip_rotation_l	knee_angle_l	ankle_angle_l	subtalar_angle_l	mtp_angle_l	lumbar_extension	lumbar_bending	lumbar_rotation	arm_flex_r	arm_add_r	arm_rot_r	elbow_flex_r	pro_sup_r	arm_flex_l	arm_add_l	arm_rot_l	elbow_flex_l	pro_sup_l
      3.25000000	    -12.52215608	      0.91398670	     -2.44404378	      0.34359364	      1.26474555	     -0.08408169	     25.19631594	     -1.23707161	     -0.27782478	     65.43412547	      1.52316644	    -26.88962277	      0.00000000	     25.72007711	      2.11969739	      4.86300462	     68.20883470	      6.36583524	     -8.22153585	      0.00000000	     -5.42178164	     -0.43982681	      4.92361226	     -6.07517794	    -28.83770242	    -16.65897216	     66.21765594	     91.57218724	     20.54217214	    -23.66655412	      6.18107831	     53.23875378	     85.68069066
      3.26666670	    -12.59699908	      0.70130666	     -2.14967693	      0.35540268	      1.26476421	     -0.08415486	     29.31858172	     -1.47408082	     -0.23117468	     68.32947692	      2.63786665	    -25.74329506	      0.00000000	     30.07288121	      1.80692717	      4.77013598	     72.39053085	      5.99184188	     -5.55890987	      0.00000000	     -6.43841973	     -0.05282735	      4.60651932	     -5.92360497	    -29.21293213	    -17.26197471	     65.22507633	     91.06286240	     19.92071404	    -23.30899189	      4.84611732	     53.40644020	     85.12624674
      3.28333330	    -12.93822219	      0.36553739	     -1.89898614	      0.36894509	      1.26184103	     -0.08378447	     33.28146987	     -1.34375730	     -0.11019770	     69.00082986	      3.55782734	    -22.69300104	      0.00000000	     34.33735852	      1.36556129	      4.95221814	     73.79044337	      5.67681635	     -1.64448269	      0.00000000	     -7.41939735	      0.46395467	      3.85385974	     -4.74057436	    -29.65724419	    -16.39234416	     63.24956654	     88.61219334	     18.81703892	    -22.90826545	      2.10428289	     53.58040092	     82.76504582
      3.30000000	    -13.58191266	      0.02125498	     -1.72690471	      0.38631411	      1.25098014	     -0.08086617	     36.46376581	     -1.00070391	      0.54670031	     67.19824508	      3.00481359	    -19.91587589	      0.00000000	     37.60047433	      0.27583735	      5.24396890	     72.79436084	      4.16818217	      1.30670721	      0.00000000	     -7.58804267	      0.84810135	      4.11193322	     -5.26464837	    -29.86708002	    -16.78385930	     62.36660182	     88.32473590	     18.24018162	    -22.97650616	      2.36862996	     53.50675886	     82.61818074
      3.31666670	    -14.48905791	     -0.17569411	     -1.68228432	      0.40029888	      1.24547022	     -0.08101594	     39.38989558	     -1.06121474	      1.04018113	     63.08638959	      3.57130999	    -16.35781235	      0.00000000	     40.90811863	     -0.67141358	      5.63840166	     68.49320052	      2.79150519	      3.10853021	      0.00000000	     -8.05616429	      1.16960090	      4.51661054	     -5.75968951	    -29.75366150	    -17.68424664	     61.47397471	     87.88471638	     17.88023029	    -22.70250630	      2.27387240	     53.19827170	     82.32673020
      3.33333330	    -15.36358453	     -0.08299927	     -1.47035223	      0.41792502	      1.23189609	     -0.08039517	     41.64496251	     -1.52985669	      1.19379058	     58.29489529	      1.43296787	    -15.31066767	      0.00000000	     43.32062052	     -1.39794128	      5.13292067	     63.13221650	      1.41322379	      2.82577633	      0.00000000	     -8.12786153	      1.04338052	      4.62537909	     -6.40250133	    -29.24908229	    -18.71103227	     60.55778193	     87.39131610	     17.33278484	    -22.41293674	      2.06781523	     52.51877633	     81.98633629
      3.35000000	    -15.96734572	      0.03956471	     -1.10242171	      0.43689378	      1.22444596	     -0.07859097	     42.48189621	     -2.04995113	      1.40870987	     51.47654883	     -1.77825729	    -13.56460177	      0.00000000	     44.34601996	     -2.05514084	      4.56112644	     55.15674304	     -3.96648693	      3.48165209	      0.00000000	     -8.75589054	      1.05399013	      4.51056981	     -7.06903478	    -28.39944759	    -19.81410378	     59.98219559	     86.93434262	     16.50962127	    -22.07009086	      2.00490465	     51.65632197	     81.68047388
      3.36666670	    -16.29550689	     -0.16861372	     -0.73408235	      0.45482828	      1.20825692	     -0.07572950	     42.56991433	     -2.26479452	      1.17653534	     44.52069402	     -4.77076541	    -11.94716163	      0.00000000	     44.79456558	     -2.98315693	      3.83921950	     47.53854416	     -8.68129098	      3.50837232	      0.00000000	     -9.60150595	      1.29124208	      4.25467917	     -7.80703638	    -27.39820233	    -20.77324877	     59.41783540	     86.53022967	     15.56505234	    -21.82540567	      1.95986278	     50.90977250	     81.39837281
      3.38333330	    -16.39358863	     -0.31132185	     -0.52953062	      0.47401201	      1.18980411	     -0.07740856	     42.78851573	     -2.53636967	      1.24110473	     39.20862983	     -8.45326905	    -10.72293089	      0.00000000	     45.25469043	     -3.81489192	      2.96406524	     41.21925477	    -13.65353328	      3.37674797	      0.00000000	    -10.54780360	      1.65309716	      4.19502606	     -8.77916338	    -26.61452941	    -21.59110981	     59.08809108	     86.16671432	     14.46165427	    -21.35339372	      1.93721227	     50.35389746	     81.12322954
      3.40000000	    -16.32919050	     -0.24997189	     -0.21202740	      0.49281655	      1.16626119	     -0.07755179	     42.74782515	     -3.06770003	      1.32221076	     33.99544079	    -11.97624932	     -9.79480839	      0.00000000	     45.56420455	     -4.02627133	      1.68393162	     36.14272345	    -18.04143151	      2.88528960	      0.00000000	    -11.48055513	      1.85488614	      3.77068712	     -9.45183649	    -25.77302021	    -22.28924366	     59.17349803	     85.82221377	     13.46526772	    -21.00200390	      2.01112242	     49.60302949	     80.86068025
      3.41666670	    -15.65382151	     -0.29670067	      0.32755987	      0.51551128	      1.14656547	     -0.07881288	     41.58044505	     -3.50420819	      1.06976838	     29.90859870	    -14.95640141	     -8.23388215	      0.00000000	     44.70183987	     -3.92741624	      0.24149775	     31.58966660	    -21.94254860	      2.66726218	      0.00000000	    -12.61987453	      2.15453077	      3.07732194	    -10.10822195	    -24.79990316	    -22.76153805	     58.88025682	     85.49886972	     12.53810327	    -20.56446676	      2.30037993	     48.59308429	     80.59576534
      3.43333330	    -14.98533318	     -0.30575508	      0.72751260	      0.53627193	      1.11705690	     -0.07820310	     40.82322065	     -3.66586796	      0.79156296	     27.25056619	    -17.00456513	     -7.35458305	      0.00000000	     43.79143883	     -3.81614005	     -1.00004513	     28.11146826	    -24.63122441	      2.41080784	      0.00000000	    -13.64197982	      2.38164797	      2.62864608	    -10.90177665	    -23.95652267	    -23.07539678	     58.67834793	     85.19955122	     11.58060388	    -20.24509817	      2.74165840	     48.09491103	     80.33866530
      3.45000000	    -14.00177174	     -0.56132661	      1.35934018	      0.55957671	      1.08402149	     -0.07962706	     39.80949791	     -3.62043392	      0.51224341	     26.22912231	    -17.11308421	     -6.12577787	      0.00000000	     42.95882823	     -3.73461460	     -1.90246930	     26.34150831	    -26.54367297	      0.91084819	      0.00000000	    -14.38292632	      2.84203698	      2.06375461	    -11.75216914	    -23.08094824	    -23.29957172	     58.00159388	     84.88487435	     10.78117688	    -19.80986003	      3.45498201	     47.38790094	     80.07752876
      3.46666670	    -13.27613658	     -0.71879971	      1.30134746	      0.57967661	      1.04606400	     -0.08113169	     39.76987229	     -3.43794870	     -0.30597877	     27.25088336	    -17.08106330	     -6.29373968	      0.00000000	     42.86461375	     -3.96871127	     -3.01380946	     26.75288379	    -26.87636125	      0.10258303	      0.00000000	    -14.61185811	      3.02299640	      1.88035790	    -12.37275176	    -22.55480644	    -23.19092836	     57.66524108	     84.83443272	      9.80052407	    -19.29580178	      3.77314847	     47.05722031	     80.04268354
      3.48333330	    -12.12037843	     -0.43310113	      1.02804938	      0.60471755	      1.01259514	     -0.08161552	     39.39825908	     -3.38129339	     -0.34133865	     29.29294139	    -17.42753737	     -6.17448318	      0.00000000	     41.62723760	     -3.51815881	     -3.15810869	     27.54607502	    -27.80267241	     -1.84744661	      0.00000000	    -14.92240473	      2.88633464	      1.40120497	    -12.63857938	    -21.86477546	    -23.11074137	     57.45508453	     84.62351403	      8.55430502	    -19.05284312	      4.39351173	     46.28039972	     79.86975105
      3.50000000	    -10.85776587	     -0.51794076	      0.91735436	      0.62958945	      0.96211705	     -0.07857825	     39.48422509	     -2.70327597	     -0.21629352	     32.99139978	    -16.10210929	     -6.78209527	      0.00000000	     41.23782536	     -3.40842125	     -2.94517888	     30.83975556	    -25.10391991	     -3.24465933	      0.00000000	    -14.80021906	      2.91301055	      1.06367556	    -13.25356356	    -21.19620077	    -22.88367188	     57.31520635	     84.55421034	      7.55956555	    -18.90089370	      4.70629059	     45.95821478	     79.80499497
      3.51666670	    -10.47042804	     -0.54682055	      0.88603415	      0.64628374	      0.92188112	     -0.07466824	     41.36995381	     -1.98779299	     -0.12135009	     39.84783158	     -8.52937129	     -9.21561596	      0.00000000	     43.12306884	     -3.18722581	     -1.73320197	     38.62221929	    -16.28687082	     -5.74004852	      0.00000000	    -14.05127634	      2.84456083	      0.64206191	    -13.12265239	    -20.38293727	    -22.04578408	     57.29525080	     84.37956904	      6.89184949	    -18.91443430	      5.54566422	     45.88841603	     79.58463561
      3.53333330	     -9.96746823	     -0.49197186	      0.87613387	      0.65749147	      0.88501976	     -0.07316107	     44.46535938	     -1.37026457	      0.42233883	     49.41929521	      1.76912512	    -11.53795340	      0.00000000	     46.15295713	     -3.06829704	     -1.51336694	     48.84970640	     -4.67803833	     -7.27822736	      0.00000000	    -14.37514543	      2.62771991	      0.17572487	    -11.77793684	    -19.58818904	    -20.94921194	     57.47750342	     84.22606227	      7.62443162	    -19.00785509	      6.24596878	     45.93702881	     79.30995211
      3.55000000	    -10.01448077	     -0.99897814	      0.83373928	      0.67351331	      0.84108820	     -0.07083486	     49.14655066	     -0.45024239	      0.63991121	     60.66454123	     12.65775307	    -12.92198134	      0.00000000	     50.56270933	     -3.23706226	     -0.59230319	     60.36003204	      7.89269933	     -8.11716629	      0.00000000	    -14.59692392	      2.77793598	      0.26870287	    -10.14163876	    -19.03032932	    -19.57589094	     57.27206641	     84.12563231	      8.91503889	    -19.08470065	      6.87528247	     46.42584175	     79.03410840
      3.56666670	    -10.40630541	     -1.26524273	      0.73588269	      0.67960709	      0.81128808	     -0.07169869	     53.96892707	      0.17483445	      1.04109690	     70.08889122	     20.66998821	    -12.15162708	      0.00000000	     54.78799025	     -2.65983517	      0.44552235	     69.71903868	     16.99382159	     -9.41343286	      0.00000000	    -15.68152621	      2.85511393	      0.37271939	     -7.00729387	    -18.64786805	    -18.16735397	     56.62312050	     84.03537202	     11.48861675	    -18.87114284	      7.64102258	     46.65571558	     78.74718556
